# xmcd
#
# Track frame offsets:
# 150
# 17107
# 39846
# 59673
# 95806
# 112623
# 129440
# 148324
# 168401
# 185216
# 204264
# 222465
# 249535
# 258118
# 266701
#
# Disc length: 3883 seconds
#
# Revision: 0
# Processed by: cddbd v1.5.2PL0 Copyright (c) Steve Scherf et al.
# Submitted via: Audion 3.0.2 (http://www.panic.com/audion/)
#
DISCID=e00f290f
DTITLE=Rusted Root - When I Woke
DYEAR=1900
DGENRE=
TTITLE0=Drum Trip
TTITLE1=Ecstasy
TTITLE2=Send Me on My Way
TTITLE3=Cruel Sun
TTITLE4=Cat Turned Blue
TTITLE5=Cat Turned Blue
TTITLE6=Beautiful People
TTITLE7=Martyr
TTITLE8=Rain
TTITLE9=Food and Creative Love
TTITLE10=Lost in a Crowd
TTITLE11=Laugh as the Sun
TTITLE12=Infinite Tamboura
TTITLE13=Infinite Tamboura
TTITLE14=Back to the Earth
EXTD=
EXTT0=
EXTT1=
EXTT2=
EXTT3=
EXTT4=
EXTT5=
EXTT6=
EXTT7=
EXTT8=
EXTT9=
EXTT10=
EXTT11=
EXTT12=
EXTT13=
EXTT14=
PLAYORDER=
